<svg width="1292" height="300" viewBox="0 0 1292 300" fill="none" xmlns="http://www.w3.org/2000/svg">
<circle cx="150" cy="150" r="146.5" stroke="#132735" stroke-width="7"/>
<path d="M174 274L212 195" stroke="#132735" stroke-width="14"/>
<path d="M217 167C225.284 167 232 173.716 232 182C232 190.284 225.284 197 217 197C208.716 197 202 190.284 202 182C202 173.716 208.716 167 217 167Z" stroke="#132735" stroke-width="10"/>
<circle cx="191" cy="102" r="15" stroke="#132735" stroke-width="10"/>
<path d="M139 224L186 116" stroke="#132735" stroke-width="14"/>
<path d="M62 104.549C65.1371 110.183 142.082 206.871 180.163 254.511" stroke="#132735" stroke-width="21" stroke-linejoin="round"/>
<path d="M226 167L250 116" stroke="#132735" stroke-width="14"/>
<circle cx="255" cy="102" r="15" stroke="#132735" stroke-width="10"/>
<path d="M39.4646 105.287C42.9569 111.559 128.613 219.194 171.005 272.227" stroke="#132735" stroke-width="21" stroke-linecap="round" stroke-linejoin="round"/>
<path d="M71.1321 109.871C75.2742 109.87 78.6319 106.512 78.6316 102.37C78.6313 98.2279 75.2732 94.8703 71.1311 94.8706L71.1321 109.871ZM71.1316 102.371L71.1311 94.8706L39.9993 94.8727L39.9998 102.373L40.0003 109.873L71.1321 109.871L71.1316 102.371Z" fill="#132735"/>
<path d="M371.75 209.125C367.917 203.375 364.083 195.833 360.25 186.5L346.5 151C346.083 150.083 345.833 149.083 345.75 148C345.583 145.667 346.25 143.667 347.75 142C349.333 140.333 351.333 139.5 353.75 139.5C356.333 139.5 358.25 140.083 359.5 141.25C360.833 142.333 361.917 143.75 362.75 145.5L374.625 178C375.958 181.417 377.25 184.667 378.5 187.75C379.833 190.75 381.292 193.5 382.875 196C384.458 198.5 386.25 199.833 388.25 200C390.167 199.833 391.875 198.5 393.375 196C395.042 193.5 396.5 190.75 397.75 187.75C399.083 184.667 400.417 181.417 401.75 178L413.375 145.5C414.208 143.75 415.25 142.333 416.5 141.25C417.833 140.083 419.875 139.5 422.625 139.5C425.042 139.5 427 140.333 428.5 142C430.083 143.667 430.792 145.667 430.625 148C430.542 149.083 430.292 150.083 429.875 151L416.125 186.5C412.292 196 408.458 203.583 404.625 209.25C400.875 214.833 395.417 217.667 388.25 217.75C381 217.667 375.5 214.792 371.75 209.125ZM466.75 142H472.5H515C517.333 142.083 519.25 142.958 520.75 144.625C522.333 146.292 523.125 148.292 523.125 150.625C522.708 155.625 520 158.333 515 158.75H471C467.833 158.917 465.208 160.125 463.125 162.375C461.042 164.625 459.5 167.208 458.5 170.125C457.583 172.958 457.125 175.875 457.125 178.875C457.125 181.875 457.583 184.833 458.5 187.75C459.5 190.583 461.042 193.125 463.125 195.375C465.208 197.625 467.833 198.833 471 199H515C517.333 199.083 519.25 199.958 520.75 201.625C522.333 203.292 523.125 205.292 523.125 207.625C523.042 209.875 522.208 211.792 520.625 213.375C519.125 214.875 517.25 215.667 515 215.75H469.125H466.75C460.917 215.417 456.083 213.208 452.25 209.125C448.5 204.958 445.792 200.25 444.125 195C442.542 189.75 441.75 184.375 441.75 178.875C441.75 173.375 442.583 168 444.25 162.75C445.917 157.5 448.625 152.833 452.375 148.75C456.125 144.583 460.917 142.333 466.75 142ZM522.875 178.375C522.875 180.708 522.042 182.667 520.375 184.25C518.792 185.917 516.833 186.75 514.5 186.75H476.75C474.417 186.75 472.417 185.958 470.75 184.375C469.167 182.708 468.375 180.708 468.375 178.375C468.375 176.042 469.167 174.042 470.75 172.375C472.417 170.792 474.417 170 476.75 170H514.5C516.833 170 518.792 170.833 520.375 172.5C522.042 174.083 522.875 176.042 522.875 178.375ZM575.5 138.625C579.833 138.625 584.083 139.125 588.25 140.125C592.5 141.125 596.542 142.625 600.375 144.625C604.208 146.542 607.583 149.125 610.5 152.375C613.5 155.625 615.125 159.5 615.375 164V169.25V209.125C614.875 214.125 612.125 216.833 607.125 217.25C604.792 217.25 602.75 216.5 601 215C599.333 213.417 598.5 211.458 598.5 209.125V167.875C598.333 165.292 597.333 163.167 595.5 161.5C593.75 159.75 591.75 158.375 589.5 157.375C587.333 156.375 585.042 155.625 582.625 155.125C580.292 154.625 577.917 154.375 575.5 154.375C573.083 154.375 570.667 154.625 568.25 155.125C565.917 155.625 563.625 156.375 561.375 157.375C559.208 158.375 557.208 159.75 555.375 161.5C553.625 163.167 552.667 165.292 552.5 167.875V209.125C552.083 214.125 549.375 216.833 544.375 217.25C542.042 217.25 540 216.5 538.25 215C536.583 213.417 535.75 211.458 535.75 209.125V169.25V164C536 159.5 537.583 155.625 540.5 152.375C543.417 149.125 546.792 146.542 550.625 144.625C554.458 142.625 558.458 141.125 562.625 140.125C566.875 139.125 571.167 138.625 575.5 138.625ZM628.75 150.375C628.75 148.042 629.542 146.083 631.125 144.5C632.792 142.833 634.792 142 637.125 142H709.875C712.208 142 714.208 142.792 715.875 144.375C717.458 146.042 718.25 148.042 718.25 150.375C718.25 152.708 717.417 154.708 715.75 156.375C714.167 157.958 712.208 158.75 709.875 158.75H682V209.375C681.5 214.375 678.75 217.083 673.75 217.5C671.417 217.5 669.375 216.75 667.625 215.25C665.958 213.667 665.125 211.708 665.125 209.375V158.75H637.125C634.792 158.75 632.833 157.917 631.25 156.25C629.583 154.667 628.75 152.708 628.75 150.375ZM748.25 209.375C747.75 214.375 745 217.083 740 217.5C737.667 217.5 735.625 216.75 733.875 215.25C732.208 213.667 731.375 211.708 731.375 209.375V150.125C731.458 147.792 732.333 145.875 734 144.375C735.667 142.792 737.667 142 740 142H746.125H761.5H792.375C792.875 142 793.375 142.042 793.875 142.125H794.625C800.458 142.292 805.25 143.625 809 146.125C812.75 148.625 815.458 151.5 817.125 154.75C818.792 157.917 819.625 161.125 819.625 164.375C819.625 167.708 818.792 171 817.125 174.25C815.542 177.417 812.833 180.25 809 182.75C805.25 185.25 800.458 186.583 794.625 186.75H772.625C773.292 190.917 774.667 194 776.75 196C778.75 198 781.292 199 784.375 199H811.375C813.708 199.083 815.625 199.958 817.125 201.625C818.708 203.292 819.5 205.292 819.5 207.625C819.417 209.875 818.583 211.792 817 213.375C815.5 214.875 813.625 215.667 811.375 215.75H782.125C775.958 215.833 770.375 213.417 765.375 208.5C760.375 203.583 757.333 197.75 756.25 191C754.75 183.5 754 179.292 754 178.375C754 176.042 754.792 174.083 756.375 172.5C758.042 170.833 760.042 170 762.375 170H795.375C796.958 169.917 798.25 169.583 799.25 169C800.333 168.333 801.125 167.625 801.625 166.875C802.125 166.042 802.375 165.208 802.375 164.375C802.375 163.542 802.125 162.75 801.625 162C801.125 161.167 800.333 160.458 799.25 159.875C798.25 159.208 796.958 158.833 795.375 158.75H761.5H751.5C749.333 158.833 748.25 159.917 748.25 162V209.375ZM861.25 196.375C861.25 194.042 862.042 192.083 863.625 190.5C865.292 188.833 867.292 188 869.625 188H888.75L885.5 178.75C884.167 175.333 882.833 172.125 881.5 169.125C880.25 166.042 878.792 163.25 877.125 160.75C875.625 158.25 873.917 156.917 872 156.75C870 156.917 868.208 158.25 866.625 160.75C865.042 163.25 863.583 166.042 862.25 169.125C861 172.125 859.708 175.333 858.375 178.75L846.5 211.25C845.667 213 844.583 214.458 843.25 215.625C842 216.708 840.083 217.25 837.5 217.25C835.083 217.25 833.083 216.417 831.5 214.75C830 213.083 829.333 211.083 829.5 208.75C829.583 207.667 829.833 206.667 830.25 205.75L844 170.25C847.833 160.917 851.667 153.375 855.5 147.625C859.25 141.958 864.75 139.083 872 139C879.167 139.083 884.625 141.958 888.375 147.625C892.208 153.208 896.042 160.75 899.875 170.25L913.625 205.75C914.042 206.667 914.292 207.667 914.375 208.75C914.542 211.083 913.833 213.083 912.25 214.75C910.75 216.417 908.792 217.25 906.375 217.25C903.625 217.25 901.583 216.708 900.25 215.625C899 214.458 897.958 213 897.125 211.25L894.75 204.75H869.625C867.292 204.75 865.333 203.917 863.75 202.25C862.083 200.667 861.25 198.708 861.25 196.375ZM924.5 150.375C924.5 148.042 925.292 146.083 926.875 144.5C928.542 142.833 930.542 142 932.875 142H1005.62C1007.96 142 1009.96 142.792 1011.62 144.375C1013.21 146.042 1014 148.042 1014 150.375C1014 152.708 1013.17 154.708 1011.5 156.375C1009.92 157.958 1007.96 158.75 1005.62 158.75H977.75V209.375C977.25 214.375 974.5 217.083 969.5 217.5C967.167 217.5 965.125 216.75 963.375 215.25C961.708 213.667 960.875 211.708 960.875 209.375V158.75H932.875C930.542 158.75 928.583 157.917 927 156.25C925.333 154.667 924.5 152.708 924.5 150.375ZM1050.38 142H1056.12H1098.62C1100.96 142.083 1102.88 142.958 1104.38 144.625C1105.96 146.292 1106.75 148.292 1106.75 150.625C1106.33 155.625 1103.62 158.333 1098.62 158.75H1054.62C1051.46 158.917 1048.83 160.125 1046.75 162.375C1044.67 164.625 1043.12 167.208 1042.12 170.125C1041.21 172.958 1040.75 175.875 1040.75 178.875C1040.75 181.875 1041.21 184.833 1042.12 187.75C1043.12 190.583 1044.67 193.125 1046.75 195.375C1048.83 197.625 1051.46 198.833 1054.62 199H1098.62C1100.96 199.083 1102.88 199.958 1104.38 201.625C1105.96 203.292 1106.75 205.292 1106.75 207.625C1106.67 209.875 1105.83 211.792 1104.25 213.375C1102.75 214.875 1100.88 215.667 1098.62 215.75H1052.75H1050.38C1044.54 215.417 1039.71 213.208 1035.88 209.125C1032.12 204.958 1029.42 200.25 1027.75 195C1026.17 189.75 1025.38 184.375 1025.38 178.875C1025.38 173.375 1026.21 168 1027.88 162.75C1029.54 157.5 1032.25 152.833 1036 148.75C1039.75 144.583 1044.54 142.333 1050.38 142ZM1106.5 178.375C1106.5 180.708 1105.67 182.667 1104 184.25C1102.42 185.917 1100.46 186.75 1098.12 186.75H1060.38C1058.04 186.75 1056.04 185.958 1054.38 184.375C1052.79 182.708 1052 180.708 1052 178.375C1052 176.042 1052.79 174.042 1054.38 172.375C1056.04 170.792 1058.04 170 1060.38 170H1098.12C1100.46 170 1102.42 170.833 1104 172.5C1105.67 174.083 1106.5 176.042 1106.5 178.375ZM1147.75 158.75C1144.58 158.917 1141.92 160.125 1139.75 162.375C1137.67 164.625 1136.17 167.208 1135.25 170.125C1134.33 172.958 1133.88 175.875 1133.88 178.875C1133.88 181.875 1134.29 184.833 1135.12 187.75C1136.04 190.667 1137.58 193.25 1139.75 195.5C1141.92 197.667 1144.58 198.833 1147.75 199H1189C1194.25 199.5 1197.12 202.375 1197.62 207.625C1197.54 209.958 1196.67 211.917 1195 213.5C1193.33 215 1191.33 215.75 1189 215.75H1149.12H1143.38C1137.54 215.417 1132.75 213.208 1129 209.125C1125.25 204.958 1122.54 200.25 1120.88 195C1119.29 189.75 1118.5 184.375 1118.5 178.875C1118.5 174.792 1118.96 170.75 1119.88 166.75C1120.79 162.75 1122.21 158.958 1124.12 155.375C1126.12 151.708 1128.75 148.583 1132 146C1135.33 143.417 1139.12 142.083 1143.38 142H1145.75H1189C1194.25 142.5 1197.12 145.375 1197.62 150.625C1197.62 152.958 1196.75 154.917 1195 156.5C1193.33 158 1191.33 158.75 1189 158.75H1147.75ZM1217.75 140C1220 140.083 1221.92 140.917 1223.5 142.5C1225.08 144 1225.92 145.875 1226 148.125V169H1266.62V148.125C1266.71 145.792 1267.58 143.875 1269.25 142.375C1270.92 140.792 1272.92 140 1275.25 140C1277.5 140.083 1279.42 140.917 1281 142.5C1282.58 144 1283.42 145.875 1283.5 148.125V209.375C1283 214.375 1280.25 217.083 1275.25 217.5C1272.92 217.5 1270.88 216.75 1269.12 215.25C1267.46 213.667 1266.62 211.708 1266.62 209.375V185.75H1226V209.375C1225.5 214.375 1222.75 217.083 1217.75 217.5C1215.42 217.5 1213.38 216.75 1211.62 215.25C1209.96 213.667 1209.12 211.708 1209.12 209.375V148.125C1209.21 145.792 1210.08 143.875 1211.75 142.375C1213.42 140.792 1215.42 140 1217.75 140Z" fill="#132735"/>
</svg>
